<mxfile host="app.diagrams.net" modified="2021-07-06T13:27:37.349Z" agent="5.0 (Windows NT 10.0; Win64; x64) AppleWebKit/537.36 (KHTML, like Gecko) Chrome/91.0.4472.114 Safari/537.36 OPR/77.0.4054.172" etag="lZFon2B-tVGW00fHlmGg" version="14.8.4" type="github">
  <diagram name="Regis" id="e7e014a7-5840-1c2e-5031-d8a46d1fe8dd">
    <mxGraphModel dx="1068" dy="483" grid="1" gridSize="10" guides="1" tooltips="1" connect="1" arrows="1" fold="1" page="1" pageScale="1" pageWidth="1169" pageHeight="826" background="none" math="0" shadow="0">
      <root>
        <mxCell id="0" />
        <mxCell id="1" parent="0" />
        <mxCell id="2" value="Pasien" style="swimlane;whiteSpace=wrap" parent="1" vertex="1">
          <mxGeometry x="144.5" y="128" width="455.5" height="622" as="geometry" />
        </mxCell>
        <mxCell id="5" value="" style="ellipse;shape=startState;fillColor=#000000;strokeColor=#1C0000;" parent="2" vertex="1">
          <mxGeometry x="227.75" y="32" width="30" height="30" as="geometry" />
        </mxCell>
        <mxCell id="6" value="" style="edgeStyle=elbowEdgeStyle;elbow=horizontal;verticalAlign=bottom;endArrow=open;endSize=8;strokeColor=#FF0000;endFill=1;rounded=0" parent="2" source="5" target="7" edge="1">
          <mxGeometry x="100" y="40" as="geometry">
            <mxPoint x="115" y="110" as="targetPoint" />
          </mxGeometry>
        </mxCell>
        <mxCell id="7" value="Daftar Berobat" style="" parent="2" vertex="1">
          <mxGeometry x="187.75" y="102" width="110" height="50" as="geometry" />
        </mxCell>
        <mxCell id="8" value="Menyerahkan&#xa;Kartu Berobat" style="" parent="2" vertex="1">
          <mxGeometry x="330.5" y="187.5" width="110" height="50" as="geometry" />
        </mxCell>
        <mxCell id="10" value="Menerima&#xa;Kartu Berobat" style="" parent="2" vertex="1">
          <mxGeometry x="187.75" y="462" width="110" height="50" as="geometry" />
        </mxCell>
        <mxCell id="oCByK1RaVwtiQ2hoH2sD-41" value="MenyerahkanÂ &#xa;Data" style="" parent="2" vertex="1">
          <mxGeometry x="35.5" y="187.5" width="110" height="50" as="geometry" />
        </mxCell>
        <mxCell id="oCByK1RaVwtiQ2hoH2sD-42" value="" style="rhombus;whiteSpace=wrap;html=1;" parent="2" vertex="1">
          <mxGeometry x="217.31" y="190" width="50.87" height="47.5" as="geometry" />
        </mxCell>
        <mxCell id="3mkd8SML6_tE1jYvAB_r-43" value="" style="endArrow=classic;html=1;exitX=0;exitY=0.5;exitDx=0;exitDy=0;strokeColor=#FF0000;" parent="2" source="oCByK1RaVwtiQ2hoH2sD-42" target="oCByK1RaVwtiQ2hoH2sD-41" edge="1">
          <mxGeometry width="50" height="50" relative="1" as="geometry">
            <mxPoint x="125.5" y="212" as="sourcePoint" />
            <mxPoint x="205.5" y="212" as="targetPoint" />
          </mxGeometry>
        </mxCell>
        <mxCell id="3mkd8SML6_tE1jYvAB_r-45" value="Pasien&lt;br&gt;Lama" style="text;html=1;strokeColor=none;fillColor=none;align=center;verticalAlign=middle;whiteSpace=wrap;rounded=0;" parent="2" vertex="1">
          <mxGeometry x="275.5" y="182" width="40" height="20" as="geometry" />
        </mxCell>
        <mxCell id="3mkd8SML6_tE1jYvAB_r-46" value="" style="edgeStyle=elbowEdgeStyle;elbow=horizontal;verticalAlign=bottom;endArrow=open;endSize=8;strokeColor=#FF0000;endFill=1;rounded=0" parent="2" edge="1">
          <mxGeometry x="-44.75" as="geometry">
            <mxPoint x="242.25" y="190" as="targetPoint" />
            <mxPoint x="242.5" y="152" as="sourcePoint" />
          </mxGeometry>
        </mxCell>
        <mxCell id="3mkd8SML6_tE1jYvAB_r-57" value="" style="ellipse;shape=startState;fillColor=#000000;strokeColor=#1C0000;" parent="2" vertex="1">
          <mxGeometry x="227.74" y="562" width="30" height="30" as="geometry" />
        </mxCell>
        <mxCell id="3mkd8SML6_tE1jYvAB_r-58" value="" style="endArrow=classic;html=1;strokeColor=#FF0000;exitX=0.5;exitY=1;exitDx=0;exitDy=0;" parent="2" source="10" edge="1">
          <mxGeometry width="50" height="50" relative="1" as="geometry">
            <mxPoint x="355.5" y="502" as="sourcePoint" />
            <mxPoint x="242.5" y="552" as="targetPoint" />
            <Array as="points">
              <mxPoint x="242.5" y="512" />
            </Array>
          </mxGeometry>
        </mxCell>
        <mxCell id="JEiNnRtU_CCjKjv5AWPd-35" value="Stop" style="text;html=1;strokeColor=none;fillColor=none;align=center;verticalAlign=middle;whiteSpace=wrap;rounded=0;" parent="2" vertex="1">
          <mxGeometry x="268.18" y="562" width="40" height="20" as="geometry" />
        </mxCell>
        <mxCell id="3pfffbzTPtpgnakrQmvE-34" value="" style="ellipse;whiteSpace=wrap;html=1;aspect=fixed;strokeColor=#1C0000;fillColor=none;" vertex="1" parent="2">
          <mxGeometry x="223.75" y="558" width="38" height="38" as="geometry" />
        </mxCell>
        <mxCell id="3" value="Staff Klinik" style="swimlane;whiteSpace=wrap" parent="1" vertex="1">
          <mxGeometry x="600" y="128" width="360" height="622" as="geometry" />
        </mxCell>
        <mxCell id="15" value="Membuat Kartu&#xa;Berobat" style="" parent="3" vertex="1">
          <mxGeometry x="40" y="272" width="110" height="50" as="geometry" />
        </mxCell>
        <mxCell id="19" value="" style="endArrow=open;strokeColor=#FF0000;endFill=1;rounded=0" parent="3" edge="1">
          <mxGeometry relative="1" as="geometry">
            <mxPoint x="75" y="325" as="targetPoint" />
          </mxGeometry>
        </mxCell>
        <mxCell id="24" value="" style="endArrow=open;strokeColor=#FF0000;endFill=1;rounded=0" parent="3" edge="1">
          <mxGeometry relative="1" as="geometry">
            <mxPoint x="150" y="245" as="targetPoint" />
          </mxGeometry>
        </mxCell>
        <mxCell id="34" value="" style="whiteSpace=wrap;strokeColor=#FF0000;fillColor=#FF0000;rotation=90;" parent="3" vertex="1">
          <mxGeometry x="230" y="382" width="5" height="45" as="geometry" />
        </mxCell>
        <mxCell id="3mkd8SML6_tE1jYvAB_r-47" value="Mengisi Buku Pendaftaran Pasien" style="" parent="3" vertex="1">
          <mxGeometry x="132.5" y="462" width="200" height="50" as="geometry" />
        </mxCell>
        <mxCell id="3mkd8SML6_tE1jYvAB_r-55" value="" style="endArrow=classic;html=1;strokeColor=#FF0000;entryX=0.5;entryY=0;entryDx=0;entryDy=0;exitX=1;exitY=0.5;exitDx=0;exitDy=0;" parent="3" source="34" target="3mkd8SML6_tE1jYvAB_r-47" edge="1">
          <mxGeometry width="50" height="50" relative="1" as="geometry">
            <mxPoint x="-100" y="402" as="sourcePoint" />
            <mxPoint x="-50" y="352" as="targetPoint" />
          </mxGeometry>
        </mxCell>
        <mxCell id="JEiNnRtU_CCjKjv5AWPd-37" value="" style="endArrow=classic;html=1;entryX=0;entryY=0.25;entryDx=0;entryDy=0;exitX=1;exitY=0.5;exitDx=0;exitDy=0;strokeColor=#FF0000;" parent="3" source="15" target="34" edge="1">
          <mxGeometry width="50" height="50" relative="1" as="geometry">
            <mxPoint x="50" y="372" as="sourcePoint" />
            <mxPoint x="100" y="322" as="targetPoint" />
            <Array as="points">
              <mxPoint x="244" y="297" />
            </Array>
          </mxGeometry>
        </mxCell>
        <mxCell id="3mkd8SML6_tE1jYvAB_r-42" value="" style="endArrow=classic;html=1;entryX=0;entryY=0.5;entryDx=0;entryDy=0;strokeColor=#FF0000;" parent="1" target="8" edge="1">
          <mxGeometry width="50" height="50" relative="1" as="geometry">
            <mxPoint x="410" y="340" as="sourcePoint" />
            <mxPoint x="470" y="340" as="targetPoint" />
          </mxGeometry>
        </mxCell>
        <mxCell id="3mkd8SML6_tE1jYvAB_r-44" value="Pasien&lt;br&gt;Baru" style="text;html=1;strokeColor=none;fillColor=none;align=center;verticalAlign=middle;whiteSpace=wrap;rounded=0;" parent="1" vertex="1">
          <mxGeometry x="310" y="310" width="40" height="20" as="geometry" />
        </mxCell>
        <mxCell id="3mkd8SML6_tE1jYvAB_r-52" value="" style="endArrow=classic;html=1;strokeColor=#FF0000;exitX=0.5;exitY=1;exitDx=0;exitDy=0;entryX=0;entryY=0.5;entryDx=0;entryDy=0;" parent="1" source="oCByK1RaVwtiQ2hoH2sD-41" target="15" edge="1">
          <mxGeometry width="50" height="50" relative="1" as="geometry">
            <mxPoint x="500" y="530" as="sourcePoint" />
            <mxPoint x="550" y="480" as="targetPoint" />
            <Array as="points">
              <mxPoint x="235" y="425" />
            </Array>
          </mxGeometry>
        </mxCell>
        <mxCell id="3mkd8SML6_tE1jYvAB_r-54" value="" style="endArrow=classic;html=1;strokeColor=#FF0000;exitX=1;exitY=0.5;exitDx=0;exitDy=0;entryX=0;entryY=0.75;entryDx=0;entryDy=0;" parent="1" source="8" target="34" edge="1">
          <mxGeometry width="50" height="50" relative="1" as="geometry">
            <mxPoint x="500" y="530" as="sourcePoint" />
            <mxPoint x="550" y="480" as="targetPoint" />
            <Array as="points">
              <mxPoint x="620" y="341" />
              <mxPoint x="620" y="480" />
              <mxPoint x="821" y="480" />
            </Array>
          </mxGeometry>
        </mxCell>
        <mxCell id="3mkd8SML6_tE1jYvAB_r-56" value="" style="endArrow=classic;html=1;strokeColor=#FF0000;entryX=1;entryY=0.5;entryDx=0;entryDy=0;" parent="1" target="10" edge="1">
          <mxGeometry width="50" height="50" relative="1" as="geometry">
            <mxPoint x="730" y="615" as="sourcePoint" />
            <mxPoint x="550" y="580" as="targetPoint" />
          </mxGeometry>
        </mxCell>
        <mxCell id="JEiNnRtU_CCjKjv5AWPd-34" value="Start" style="text;html=1;strokeColor=none;fillColor=none;align=center;verticalAlign=middle;whiteSpace=wrap;rounded=0;" parent="1" vertex="1">
          <mxGeometry x="320" y="150" width="40" height="20" as="geometry" />
        </mxCell>
      </root>
    </mxGraphModel>
  </diagram>
</mxfile>
